# 3ds Max Wavefront OBJ Exporter v0.99 - (c)2007 guruware
# File Created: 07.03.2026 16:32:15

#
# object Pyramid005
#

v  -29.9459 50.0000 7.9830
v  -26.6126 33.3333 6.0581
v  -30.1334 33.3333 4.7834
v  -24.0554 16.6667 4.5821
v  -29.9459 16.6667 1.3163
v  -33.2793 33.3333 6.0570
v  -35.8365 16.6667 4.5820
v  -33.2794 33.3333 6.0586
v  -29.9459 0.0000 -25.7678
v  -24.1609 8.8334 4.6421
v  -29.9462 6.1816 7.9824
v  -35.7296 8.8327 4.6401
v  -35.7316 8.8336 4.6431
v  -29.9456 33.3333 11.8322
v  -27.0813 33.3333 9.4205
v  -29.9459 16.6667 14.7849
v  -24.1724 16.6667 11.3163
v  -26.6113 33.3333 6.0592
v  -0.7169 0.0000 24.8584
v  -29.9451 8.8334 14.6634
v  -24.1591 8.8327 4.6457
v  -32.6231 33.3333 9.7451
v  -35.7194 16.6667 11.3163
v  -29.9472 33.3333 11.8327
v  -59.1750 0.0000 24.8584
v  -29.9492 8.8327 14.6632
# 26 vertices

vn -0.0000 1.0000 -0.0000
vn 0.4990 0.1744 -0.8489
vn -0.0209 0.1964 -0.9803
vn 0.8140 0.3412 -0.4700
vn 0.0013 0.6409 -0.7676
vn -0.7840 0.1968 -0.5888
vn -0.8140 0.3412 -0.4700
vn -0.9848 0.1701 0.0360
vn -0.0000 -0.3673 -0.9301
vn 0.8198 -0.5215 -0.2366
vn -0.0000 -1.0000 -0.0000
vn -0.8112 -0.5658 -0.1474
vn -0.6225 -0.5142 -0.5899
vn 0.4857 0.1744 0.8566
vn 0.8594 0.1964 0.4721
vn -0.0000 0.3412 0.9400
vn 0.6641 0.6409 0.3850
vn 0.9182 0.1958 -0.3444
vn 0.8055 -0.3673 0.4650
vn -0.2051 -0.5215 0.8282
vn 0.5453 -0.5619 -0.6220
vn -0.8385 0.1964 0.5082
vn -0.6654 0.6409 0.3827
vn -0.1609 0.1958 0.9674
vn -0.8055 -0.3673 0.4651
vn 0.2660 -0.5619 0.7833
# 26 vertex normals

vt 0.5000 1.0000 0.0000
vt 0.3333 0.6667 0.0000
vt 0.5094 0.6667 0.0000
vt 0.1667 0.3333 0.0000
vt 0.5000 0.3333 0.0000
vt 0.3334 0.6667 0.0000
vt 0.5000 0.0000 0.0000
vt 1.0000 0.0002 0.0000
vt 0.5000 0.5004 0.0000
vt 0.0000 0.0000 0.0000
vt 0.0000 0.0004 0.0000
vt 1.0000 0.0000 0.0000
vt 0.8333 0.3333 0.0000
vt 0.6667 0.6667 0.0000
vt 0.0004 0.0000 0.0000
# 15 texture coords

o Pyramid005
g Pyramid005
s 16
f 1/1/1 2/2/2 3/3/3 
f 2/2/2 4/4/4 5/5/5 3/3/3 
s 32
f 6/2/6 7/4/7 8/6/8 
s 16
f 4/4/4 9/7/9 5/5/5 
s 8
f 10/8/10 11/9/11 9/7/9 
f 12/10/12 11/9/11 13/11/13 
s 16
f 9/7/9 12/12/12 7/13/7 
f 7/13/7 5/5/5 9/7/9 
f 4/4/4 10/10/10 9/7/9 
f 5/5/5 7/13/7 6/14/6 3/3/3 
f 3/3/3 6/14/6 1/1/1 
s 8
f 11/9/11 12/10/12 9/7/9 
s 32
f 7/4/7 12/10/12 13/15/13 
f 1/1/1 6/2/6 8/6/8 
s 16
f 1/1/1 14/2/14 15/3/15 
f 14/2/14 16/4/16 17/5/17 15/3/15 
s 32
f 18/2/18 4/4/4 2/6/2 
s 16
f 16/4/16 19/7/19 17/5/17 
s 8
f 20/8/20 11/9/11 19/7/19 
f 21/10/21 11/9/11 10/11/10 
s 16
f 19/7/19 21/12/21 4/13/4 
f 4/13/4 17/5/17 19/7/19 
f 16/4/16 20/10/20 19/7/19 
f 17/5/17 4/13/4 18/14/18 15/3/15 
f 15/3/15 18/14/18 1/1/1 
s 8
f 11/9/11 21/10/21 19/7/19 
s 32
f 4/4/4 21/10/21 10/15/10 
f 1/1/1 18/2/18 2/6/2 
s 16
f 1/1/1 8/2/8 22/3/22 
f 8/2/8 7/4/7 23/5/23 22/3/22 
s 32
f 24/2/24 16/4/16 14/6/14 
s 16
f 7/4/7 25/7/25 23/5/23 
s 8
f 13/8/13 11/9/11 25/7/25 
f 26/10/26 11/9/11 20/11/20 
s 16
f 25/7/25 26/12/26 16/13/16 
f 16/13/16 23/5/23 25/7/25 
f 7/4/7 13/10/13 25/7/25 
f 23/5/23 16/13/16 24/14/24 22/3/22 
f 22/3/22 24/14/24 1/1/1 
s 8
f 11/9/11 26/10/26 25/7/25 
s 32
f 16/4/16 26/10/26 20/15/20 
f 1/1/1 24/2/24 14/6/14 
# 6 polygons - 36 triangles

